<svg xmlns="http://www.w3.org/2000/svg" viewBox="0 0 128 128">
  <defs>
    <linearGradient id="g" x1="0" y1="0" x2="1" y2="1">
      <stop offset="0" stop-color="#ff6b6b" />
      <stop offset="1" stop-color="#ffb86b" />
    </linearGradient>
  </defs>
  <rect width="128" height="128" rx="28" fill="#0f1014" />
  <path d="M30 36a18 18 0 0 1 18-18h32a18 18 0 0 1 18 18v20a18 18 0 0 1-18 18H58l-16 14 4-14h2a18 18 0 0 1-18-18V36z" fill="url(#g)"/>
  <path d="M82 34l3.2 6.6 7.2 1.1-5.2 5 1.2 7.1-6.4-3.4-6.4 3.4 1.2-7.1-5.2-5 7.2-1.1z" fill="#ffffff"/>
</svg>
